# UnrealEd OBJ exporter (_Internal)



v -85.485870 14.514129 100.000000

v -100.000000 14.514129 85.485870

v -85.485870 -0.000004 85.485870

v 85.485886 -0.000003 85.485870

v 100.000015 14.514128 85.485870

v 85.485870 14.514129 100.000000

v -100.000000 14.514129 -85.485870

v -85.485870 14.514128 -99.999985

v -85.485870 -0.000004 -85.485870

v -85.485870 185.485870 100.000000

v -85.485870 200.000000 85.485870

v -100.000000 185.485870 85.485870

v 100.000015 185.485870 85.485870

v 85.485870 200.000000 85.485870

v 85.485870 185.485870 100.000000

v -100.000000 185.485870 -85.485870

v -85.485870 200.000000 -85.485870

v -85.485870 185.485870 -99.999977

v 85.485886 185.485886 -99.999985

v 85.485870 200.000000 -85.485870

v 100.000015 185.485870 -85.485870

v 100.000031 14.514129 -85.485870

v 85.485901 -0.000001 -85.485870

v 85.485886 14.514128 -99.999985

v 85.485886 14.514128 -99.999985

v 100.000000 14.514122 -85.485870

v 85.485870 -0.000008 -85.485870

v -85.485870 200.000000 85.485870

v 85.485870 200.000000 85.485870

v 85.485870 200.000000 -85.485870

v -85.485870 200.000000 -85.485870

v -85.485870 14.514129 100.000000

v 85.485870 14.514129 100.000000

v 85.485870 185.485870 100.000000

v -85.485870 185.485870 100.000000

v -100.000000 14.514129 -85.485870

v -100.000000 14.514129 85.485870

v -100.000000 185.485870 85.485870

v -100.000000 185.485870 -85.485870

v -85.485870 -0.000004 85.485870

v -100.000000 14.514129 85.485870

v -100.000000 14.514129 -85.485870

v -85.485870 -0.000004 -85.485870

v 85.485886 -0.000003 85.485870

v 85.485870 14.514129 100.000000

v -85.485870 14.514129 100.000000

v -85.485870 -0.000004 85.485870

v -85.485870 200.000000 85.485870

v -85.485870 185.485870 100.000000

v 85.485870 185.485870 100.000000

v 85.485870 200.000000 85.485870

v 85.485870 200.000000 85.485870

v 100.000015 185.485870 85.485870

v 100.000015 185.485870 -85.485870

v 85.485870 200.000000 -85.485870

v 85.485870 200.000000 -85.485870

v 85.485886 185.485886 -99.999985

v -85.485870 185.485870 -99.999977

v -85.485870 200.000000 -85.485870

v -85.485870 200.000000 -85.485870

v -100.000000 185.485870 -85.485870

v -100.000000 185.485870 85.485870

v -85.485870 200.000000 85.485870

v 85.485870 14.514129 100.000000

v 100.000015 14.514128 85.485870

v 100.000015 185.485870 85.485870

v 85.485870 185.485870 100.000000

v -85.485870 185.485870 100.000000

v -100.000000 185.485870 85.485870

v -100.000000 14.514129 85.485870

v -85.485870 14.514129 100.000000

v -85.485870 14.514128 -99.999985

v -100.000000 14.514129 -85.485870

v -100.000000 185.485870 -85.485870

v -85.485870 185.485870 -99.999977

v -85.485870 14.514128 -99.999985

v -85.485870 185.485870 -99.999977

v 85.485886 185.485886 -99.999985

v 85.485886 14.514128 -99.999985

v 100.000031 14.514129 -85.485870

v 100.000015 185.485870 -85.485870

v 100.000015 185.485870 85.485870

v 100.000015 14.514128 85.485870

v 85.485886 14.514128 -99.999985

v 85.485886 185.485886 -99.999985

v 100.000015 185.485870 -85.485870

v 100.000031 14.514129 -85.485870

v -85.485870 -0.000004 85.485870

v -85.485870 -0.000004 -85.485870

v 85.485870 -0.000008 -85.485870

v 85.485886 -0.000003 85.485870

v 85.485886 -0.000003 85.485870

v 85.485870 -0.000008 -85.485870

v 100.000000 14.514122 -85.485870

v 100.000015 14.514128 85.485870

v 85.485870 -0.000008 -85.485870

v -85.485870 -0.000004 -85.485870

v -85.485870 14.514128 -99.999985

v 85.485886 14.514128 -99.999985



vt 0.520020 0.059082

vt 0.484619 0.059082

vt 0.502441 0.028320

vt 0.969238 0.025879

vt 0.986816 0.056641

vt 0.951172 0.056641

vt 0.056305 0.053223

vt 0.021072 0.053223

vt 0.038666 0.022461

vt 0.520020 0.486328

vt 0.502441 0.516602

vt 0.484619 0.486328

vt 0.986816 0.488770

vt 0.969238 0.519287

vt 0.951172 0.488770

vt 0.056305 0.480957

vt 0.038666 0.510986

vt 0.021072 0.480957

vt 0.969238 0.986778

vt 0.951660 0.956268

vt 0.986816 0.956268

vt 0.056305 0.053223

vt 0.038666 0.022461

vt 0.021072 0.053223

vt 0.969238 0.986778

vt 0.986816 0.956268

vt 0.951660 0.956268

vt 0.527344 0.537109

vt 0.942383 0.537109

vt 0.942383 0.952057

vt 0.527344 0.952057

vt 0.527344 0.065918

vt 0.942383 0.065918

vt 0.942383 0.480957

vt 0.527344 0.480957

vt 0.062317 0.065918

vt 0.477295 0.065918

vt 0.477295 0.480957

vt 0.062317 0.480957

vt 0.477295 0.020996

vt 0.477295 0.056641

vt 0.062317 0.056641

vt 0.062317 0.020996

vt 0.942383 0.017090

vt 0.942383 0.052246

vt 0.527344 0.052246

vt 0.527344 0.017090

vt 0.527344 0.523193

vt 0.527344 0.488281

vt 0.942383 0.488281

vt 0.942383 0.523193

vt 0.951660 0.537109

vt 0.986816 0.537109

vt 0.986816 0.952057

vt 0.951660 0.952057

vt 0.942383 0.955536

vt 0.942383 0.990753

vt 0.527344 0.990753

vt 0.527344 0.955536

vt 0.062317 0.523438

vt 0.062317 0.488281

vt 0.477295 0.488281

vt 0.477295 0.523438

vt 0.951172 0.065918

vt 0.986816 0.065918

vt 0.986816 0.480957

vt 0.951172 0.480957

vt 0.520020 0.480957

vt 0.484619 0.480957

vt 0.484619 0.065918

vt 0.520020 0.065918

vt 0.021072 0.065918

vt 0.056305 0.065918

vt 0.056305 0.480957

vt 0.021072 0.480957

vt 0.527344 0.065918

vt 0.527344 0.480957

vt 0.942383 0.480957

vt 0.942383 0.065918

vt 0.062317 0.065918

vt 0.062317 0.480957

vt 0.477295 0.480957

vt 0.477295 0.065918

vt 0.021072 0.065918

vt 0.021072 0.480957

vt 0.056305 0.480957

vt 0.056305 0.065918

vt 0.527344 0.537109

vt 0.527344 0.952057

vt 0.942383 0.952057

vt 0.942383 0.537109

vt 0.951660 0.537109

vt 0.951660 0.952057

vt 0.986816 0.952057

vt 0.986816 0.537109

vt 0.942383 0.955536

vt 0.527344 0.955536

vt 0.527344 0.990753

vt 0.942383 0.990753



vn -0.574803 -0.574803 0.574803

vn -0.574803 -0.574803 0.574803

vn -0.574803 -0.574803 0.574803

vn 0.574803 -0.574803 0.574803

vn 0.574803 -0.574803 0.574803

vn 0.574803 -0.574803 0.574803

vn -0.574803 -0.574803 -0.574803

vn -0.574803 -0.574803 -0.574803

vn -0.574803 -0.574803 -0.574803

vn -0.574803 0.574803 0.574803

vn -0.574803 0.574803 0.574803

vn -0.574803 0.574803 0.574803

vn 0.574803 0.574803 0.574803

vn 0.574803 0.574803 0.574803

vn 0.574803 0.574803 0.574803

vn -0.574803 0.574803 -0.574803

vn -0.574803 0.574803 -0.574803

vn -0.574803 0.574803 -0.574803

vn 0.574803 0.574803 -0.574803

vn 0.574803 0.574803 -0.574803

vn 0.574803 0.574803 -0.574803

vn 0.574803 -0.574803 -0.574803

vn 0.574803 -0.574803 -0.574803

vn 0.574803 -0.574803 -0.574803

vn 0.574803 -0.574803 -0.574803

vn 0.574803 -0.574803 -0.574803

vn 0.574803 -0.574803 -0.574803

vn 0.000000 1.000000 0.000000

vn 0.000000 1.000000 0.000000

vn 0.000000 1.000000 0.000000

vn 0.000000 1.000000 0.000000

vn 0.000000 0.000000 1.000000

vn 0.000000 0.000000 1.000000

vn 0.000000 0.000000 1.000000

vn 0.000000 0.000000 1.000000

vn -1.000000 0.000000 0.000000

vn -1.000000 0.000000 0.000000

vn -1.000000 0.000000 0.000000

vn -1.000000 0.000000 0.000000

vn -0.708661 -0.708661 0.000000

vn -0.708661 -0.708661 0.000000

vn -0.708661 -0.708661 0.000000

vn -0.708661 -0.708661 0.000000

vn 0.000000 -0.708661 0.708661

vn 0.000000 -0.708661 0.708661

vn 0.000000 -0.708661 0.708661

vn 0.000000 -0.708661 0.708661

vn 0.000000 0.708661 0.708661

vn 0.000000 0.708661 0.708661

vn 0.000000 0.708661 0.708661

vn 0.000000 0.708661 0.708661

vn 0.708661 0.708661 0.000000

vn 0.708661 0.708661 0.000000

vn 0.708661 0.708661 0.000000

vn 0.708661 0.708661 0.000000

vn 0.000000 0.708661 -0.708661

vn 0.000000 0.708661 -0.708661

vn 0.000000 0.708661 -0.708661

vn 0.000000 0.708661 -0.708661

vn -0.708661 0.708661 0.000000

vn -0.708661 0.708661 0.000000

vn -0.708661 0.708661 0.000000

vn -0.708661 0.708661 0.000000

vn 0.708661 0.000000 0.708661

vn 0.708661 0.000000 0.708661

vn 0.708661 0.000000 0.708661

vn 0.708661 0.000000 0.708661

vn -0.708661 0.000000 0.708661

vn -0.708661 0.000000 0.708661

vn -0.708661 0.000000 0.708661

vn -0.708661 0.000000 0.708661

vn -0.708661 0.000000 -0.708661

vn -0.708661 0.000000 -0.708661

vn -0.708661 0.000000 -0.708661

vn -0.708661 0.000000 -0.708661

vn 0.000000 0.000000 -1.000000

vn 0.000000 0.000000 -1.000000

vn 0.000000 0.000000 -1.000000

vn 0.000000 0.000000 -1.000000

vn 1.000000 0.000000 0.000000

vn 1.000000 0.000000 0.000000

vn 1.000000 0.000000 0.000000

vn 1.000000 0.000000 0.000000

vn 0.708661 0.000000 -0.708661

vn 0.708661 0.000000 -0.708661

vn 0.708661 0.000000 -0.708661

vn 0.708661 0.000000 -0.708661

vn 0.000000 -1.000000 0.000000

vn 0.000000 -1.000000 0.000000

vn 0.000000 -1.000000 0.000000

vn 0.000000 -1.000000 0.000000

vn 0.708661 -0.708661 0.000000

vn 0.708661 -0.708661 0.000000

vn 0.708661 -0.708661 0.000000

vn 0.708661 -0.708661 0.000000

vn 0.000000 -0.708661 -0.708661

vn 0.000000 -0.708661 -0.708661

vn 0.000000 -0.708661 -0.708661

vn 0.000000 -0.708661 -0.708661

f 1/1/1 2/2/2 3/3/3

f 4/4/4 5/5/5 6/6/6

f 7/7/7 8/8/8 9/9/9

f 10/10/10 11/11/11 12/12/12

f 13/13/13 14/14/14 15/15/15

f 16/16/16 17/17/17 18/18/18

f 19/19/19 20/20/20 21/21/21

f 22/22/22 23/23/23 24/24/24

f 25/25/25 26/26/26 27/27/27

f 28/28/28 29/29/29 30/30/30

f 30/30/30 31/31/31 28/28/28

f 32/32/32 33/33/33 34/34/34

f 34/34/34 35/35/35 32/32/32

f 36/36/36 37/37/37 38/38/38

f 38/38/38 39/39/39 36/36/36

f 40/40/40 41/41/41 42/42/42

f 42/42/42 43/43/43 40/40/40

f 44/44/44 45/45/45 46/46/46

f 46/46/46 47/47/47 44/44/44

f 48/48/48 49/49/49 50/50/50

f 50/50/50 51/51/51 48/48/48

f 52/52/52 53/53/53 54/54/54

f 54/54/54 55/55/55 52/52/52

f 56/56/56 57/57/57 58/58/58

f 58/58/58 59/59/59 56/56/56

f 60/60/60 61/61/61 62/62/62

f 62/62/62 63/63/63 60/60/60

f 64/64/64 65/65/65 66/66/66

f 66/66/66 67/67/67 64/64/64

f 68/68/68 69/69/69 70/70/70

f 70/70/70 71/71/71 68/68/68

f 72/72/72 73/73/73 74/74/74

f 74/74/74 75/75/75 72/72/72

f 76/76/76 77/77/77 78/78/78

f 78/78/78 79/79/79 76/76/76

f 80/80/80 81/81/81 82/82/82

f 82/82/82 83/83/83 80/80/80

f 84/84/84 85/85/85 86/86/86

f 86/86/86 87/87/87 84/84/84

f 88/88/88 89/89/89 90/90/90

f 90/90/90 91/91/91 88/88/88

f 92/92/92 93/93/93 94/94/94

f 94/94/94 95/95/95 92/92/92

f 96/96/96 97/97/97 98/98/98

f 98/98/98 99/99/99 96/96/96

